<svg xmlns:xlink="http://www.w3.org/1999/xlink" xmlns="http://www.w3.org/2000/svg" width="128" height="128"
     viewBox="0 0 128 128" fill="none">
    <rect x="0" y="0" width="0" height="0" fill="rgba(249, 249, 249, 1)"/>
    <g opacity="1" transform="translate(0 0)  rotate(0)">
        <mask id="bg-mask-0" fill="white">
            <use xlink:href="#path_0"></use>
        </mask>
        <g mask="url(#bg-mask-0)">
            <path id="路径 1" fill-rule="evenodd" style="fill:#fff" opacity="1"
                  d="M57.3501 57.9981L57.3501 84.3281C57.3501 88.7481 59.5501 90.9581 63.9601 90.9581L64.3601 90.9581C68.7601 90.9581 70.9601 88.7481 70.9601 84.3281L70.9601 57.9981C70.9601 53.5781 68.7601 51.3681 64.3601 51.3681L63.9601 51.3681C59.5501 51.3681 57.3501 53.5781 57.3501 57.9981Z"></path>
            <path id="路径 2" fill-rule="evenodd" style="fill:#fff" opacity="1"
                  d="M68.8469 98.4305C67.5069 97.1105 65.7069 96.3805 63.8269 96.4005C60.9369 96.4005 58.3369 98.1605 57.2369 100.841C56.1469 103.531 56.7769 106.611 58.8369 108.651C60.8969 110.681 63.9769 111.271 66.6369 110.121C69.2969 108.981 70.9969 106.341 70.9469 103.431C70.9369 101.551 70.1769 99.7505 68.8469 98.4305Z"></path>
            <path id="路径 3" fill-rule="evenodd" style="fill:#fff" opacity="1"
                  d="M63.8301,127.996c-26.34,0 -47.77,-21.16 -47.77,-47.1898c0,-26.02 21.43,-47.19 47.77,-47.19c26.34,0 47.7699,21.17 47.7699,47.19c0,26.0298 -21.4499,47.1898 -47.7699,47.1898zM24.5701,80.8062c0,21.3098 17.62,38.6198 39.26,38.6198c21.63,0 39.2699,-17.28 39.2699,-38.6398c0,-21.36 -17.6199,-38.65 -39.2699,-38.65v0.03c-21.64,0 -39.26,17.33 -39.26,38.64z"></path>
            <path id="路径 4" fill-rule="evenodd" style="fill:#fff" opacity="1"
                  d="M111,123.23l-7.31,-6.19c13.69,-16.31 17.9,-33.39 12.49,-50.78c-2.5,-7.95 -6.67,-15.26 -12.23,-21.45l6.81,-6.76c6.64,7.26 11.61,15.9 14.55,25.3c4.45,14.3 5.55,36.21 -14.31,59.88zM16.99,123.23c-19.86,-23.67 -18.74,-45.58 -14.31,-59.88c2.95,-9.4 7.92,-18.04 14.56,-25.3l6.82,6.76c-1.29,1.36 -32.2,33.62 0.25,72.23zM39.37,10.91c1.32,-0.2 2.65,-0.29 3.98,-0.28c1.38,-0.12 2.77,0.15 4.01,0.77c1.01,0.5 1.65,1.54 1.64,2.67c-0.03,1.36 -0.94,2.54 -2.25,2.91c1.59,0.33 2.72,1.74 2.71,3.36c0,1.14 -0.52,2.21 -1.42,2.9c-0.98,0.79 -2.57,1.29 -5.33,1.29c-1.11,0.01 -2.23,-0.06 -3.34,-0.2zM43.43,16.08c1.61,0 2.49,-0.66 2.49,-1.68c0,-1.03 -0.8,-1.53 -2.18,-1.53c-0.43,-0.01 -0.86,0.02 -1.29,0.08l-0.02,3.13zM43.61,22.13c1.39,0 2.58,-0.52 2.58,-1.97c0,-1.45 -1.29,-1.91 -2.77,-1.91h-0.99v3.88c0.39,0.02 0.79,0.02 1.18,0zM51.46,17.76c0,-1.46 0,-2.41 -0.08,-3.26h2.64l0.09,1.82h0.09c0.36,-1.17 1.43,-1.99 2.65,-2.04c0.22,-0.02 0.43,-0.02 0.65,0v2.91c-0.27,-0.06 -0.55,-0.09 -0.83,-0.09c-0.99,-0.09 -1.89,0.58 -2.1,1.56c-0.02,0.23 -0.02,0.46 0,0.69v5.01h-3.11zM64.49,24.36l-0.18,-0.99h-0.07c-0.7,0.81 -1.74,1.26 -2.82,1.21c-0.82,0.05 -1.63,-0.25 -2.24,-0.82c-0.6,-0.57 -0.94,-1.37 -0.94,-2.2c0,-2.51 2.31,-3.8 5.79,-3.8v-0.13c0,-0.53 -0.29,-1.29 -1.8,-1.29c-0.95,0.01 -1.89,0.27 -2.71,0.75l-0.57,-1.92c1.2,-0.6 2.53,-0.9 3.86,-0.86c3.29,0 4.34,1.93 4.34,4.26v3.39c-0.01,0.8 0.04,1.61 0.15,2.4zM61.27,21.25c-0.02,0.32 0.1,0.64 0.33,0.87c0.24,0.22 0.56,0.34 0.88,0.31c0.44,0.01 0.87,-0.15 1.19,-0.47c0.31,-0.31 0.48,-0.75 0.46,-1.19v-1.07c-1.61,0 -2.86,0.36 -2.86,1.55zM72.59,18.64c0.23,-0.4 0.46,-0.8 0.71,-1.19l2.07,-2.98h3.7l-3.57,4.01l4.03,5.88h-3.77l-2.38,-4.02l-0.79,0.97v3.09h-3.07v-14.4h3.07zM82.53,20.34c0.11,1.3 1.29,1.89 2.78,1.89c0.93,0.01 1.84,-0.12 2.72,-0.4l0.4,2.08c-1.14,0.43 -2.35,0.63 -3.57,0.61c-3.33,0 -5.25,-1.95 -5.25,-5.04c-0.09,-1.38 0.39,-2.73 1.34,-3.73c0.94,-1 2.26,-1.56 3.63,-1.55c3.19,0 4.4,2.48 4.4,4.93c0,0.41 -0.03,0.81 -0.1,1.21zM85.69,16.89c-0.33,-0.37 -0.81,-0.59 -1.3,-0.59c-1.07,0.05 -1.9,0.93 -1.9,2l3.65,-0.05c0.05,-0.5 -0.12,-0.99 -0.45,-1.36z"></path>
        </g>
    </g>
    <defs>
        <rect id="path_0" x="0" y="0" width="128" height="128"/>
    </defs>
</svg>
