<svg xmlns="http://www.w3.org/2000/svg" xmlns:xlink="http://www.w3.org/1999/xlink" width="127.99562072753906" height="94.38366985321045" viewBox="0 0 127.99562072753906 94.38366985321045" fill="none"><g opacity="1"  transform="translate(0 0)  rotate(0)"><mask id="bg-mask-0" fill="white"><use xlink:href="#path_0"></use></mask><g mask="url(#bg-mask-0)" ><path id="路径 1" fill-rule="evenodd" style="fill:#FFFFFF" opacity="1" d="M57 24.38L57 50.71C57 55.13 59.2 57.34 63.61 57.34L64.01 57.34C68.41 57.34 70.61 55.13 70.61 50.71L70.61 24.38C70.61 19.96 68.41 17.75 64.01 17.75L63.61 17.75C59.2 17.75 57 19.96 57 24.38Z"></path><path id="路径 2" fill-rule="evenodd" style="fill:#FFFFFF" opacity="1" d="M69.14 64.81C67.8 63.49 66 62.76 64.12 62.78C61.23 62.78 58.63 64.54 57.53 67.22C56.44 69.91 57.07 72.99 59.13 75.03C61.19 77.06 64.27 77.65 66.93 76.5C69.59 75.36 71.29 72.72 71.24 69.81C71.23 67.93 70.47 66.13 69.14 64.81Z"></path><path id="路径 3" fill-rule="evenodd" style="fill:#FFFFFF" opacity="1" d="M63.77,94.38c-26.34,0 -47.77,-21.16 -47.77,-47.19c0,-26.02 21.43,-47.19 47.77,-47.19c26.34,0 47.77,21.17 47.77,47.19c0,26.03 -21.45,47.19 -47.77,47.19zM24.51,47.19c0,21.31 17.62,38.62 39.26,38.62c21.63,0 39.27,-17.28 39.27,-38.64c0,-21.36 -17.62,-38.65 -39.27,-38.65v0.03c-21.64,0 -39.26,17.33 -39.26,38.64z"></path><path id="路径 4" fill-rule="evenodd" style="fill:#FFFFFF" opacity="1" d="M111,89.61l-7.31,-6.19c13.69,-16.31 17.9,-33.39 12.49,-50.78c-2.5,-7.95 -6.67,-15.26 -12.23,-21.45l6.81,-6.76c6.64,7.26 11.61,15.9 14.55,25.3c4.45,14.3 5.55,36.2 -14.31,59.88zM16.99,89.61c-19.86,-23.68 -18.74,-45.58 -14.31,-59.88c2.95,-9.4 7.92,-18.04 14.56,-25.3l6.82,6.76c-1.29,1.36 -32.2,33.62 0.25,72.23z"></path></g></g><defs><rect id="path_0" x="0" y="0" width="127.99562072753906" height="94.38366985321045" /></defs></svg>