<?xml version="1.0" standalone="no"?><!DOCTYPE svg PUBLIC "-//W3C//DTD SVG 1.1//EN" "http://www.w3.org/Graphics/SVG/1.1/DTD/svg11.dtd"><svg t="1567336460384" class="icon" viewBox="0 0 1433 1024" version="1.1" xmlns="http://www.w3.org/2000/svg" p-id="4086" xmlns:xlink="http://www.w3.org/1999/xlink" width="279.8828125" height="200"><defs><style type="text/css"></style></defs><path d="M5.12 547.84h471.04V476.16H5.12v71.68z m0 168.96h471.04v-66.56H5.12V716.8z m0 174.08h471.04v-66.56H5.12v66.56z m0-517.12h471.04V307.2H5.12v66.56zM860.16 20.48c-128 0-225.28 51.2-281.6 153.6C532.48 256 512 363.52 512 512c0 148.48 20.48 256 66.56 337.92 56.32 102.4 153.6 153.6 281.6 153.6 261.12 0 568.32-215.04 568.32-491.52 0-276.48-307.2-491.52-568.32-491.52z m0 890.88c-97.28 0-158.72-35.84-199.68-107.52-35.84-66.56-56.32-158.72-56.32-291.84s15.36-225.28 56.32-291.84c40.96-71.68 107.52-107.52 199.68-107.52 215.04 0 476.16 179.2 476.16 399.36s-261.12 399.36-476.16 399.36zM5.12 199.68h471.04V133.12H5.12v66.56z" p-id="4087"></path></svg>